<mxfile host="app.diagrams.net" modified="2024-03-12T20:39:01.765Z" agent="Mozilla/5.0 (Windows NT 10.0; Win64; x64) AppleWebKit/537.36 (KHTML, like Gecko) Chrome/122.0.0.0 Safari/537.36" etag="eKwGmebr-QzzD6tB8rIW" version="24.0.0" type="github" pages="2">
  <diagram name="Deployment" id="5f0bae14-7c28-e335-631c-24af17079c00">
    <mxGraphModel dx="1050" dy="626" grid="1" gridSize="10" guides="1" tooltips="1" connect="1" arrows="1" fold="1" page="1" pageScale="1" pageWidth="1100" pageHeight="850" background="none" math="0" shadow="0">
      <root>
        <mxCell id="0" />
        <mxCell id="1" parent="0" />
        <mxCell id="lI-046-nffeyncQyr4Zk-2" value="" style="group" parent="1" connectable="0" vertex="1">
          <mxGeometry x="200" y="350" width="260" height="150" as="geometry" />
        </mxCell>
        <mxCell id="39150e848f15840c-3" value="" style="verticalAlign=top;align=left;spacingTop=8;spacingLeft=2;spacingRight=12;shape=cube;size=10;direction=south;fontStyle=4;html=1;rounded=0;shadow=0;comic=0;labelBackgroundColor=none;strokeWidth=1;fontFamily=Verdana;fontSize=12" parent="lI-046-nffeyncQyr4Zk-2" vertex="1">
          <mxGeometry width="260" height="150" as="geometry" />
        </mxCell>
        <mxCell id="lI-046-nffeyncQyr4Zk-1" value="«device»&lt;br&gt;&lt;b&gt;Firestore DB&lt;/b&gt;" style="html=1;whiteSpace=wrap;strokeColor=none;" parent="lI-046-nffeyncQyr4Zk-2" vertex="1">
          <mxGeometry x="75" y="50" width="110" height="50" as="geometry" />
        </mxCell>
        <mxCell id="lI-046-nffeyncQyr4Zk-4" value="" style="group" parent="1" connectable="0" vertex="1">
          <mxGeometry x="550" y="160" width="260" height="220" as="geometry" />
        </mxCell>
        <mxCell id="lI-046-nffeyncQyr4Zk-5" value="" style="verticalAlign=top;align=left;spacingTop=8;spacingLeft=2;spacingRight=12;shape=cube;size=10;direction=south;fontStyle=4;html=1;rounded=0;shadow=0;comic=0;labelBackgroundColor=none;strokeWidth=1;fontFamily=Verdana;fontSize=12" parent="lI-046-nffeyncQyr4Zk-4" vertex="1">
          <mxGeometry width="260" height="219.99999999999997" as="geometry" />
        </mxCell>
        <mxCell id="lI-046-nffeyncQyr4Zk-6" value="«device»&lt;br&gt;&lt;b&gt;Mobile Phone&lt;/b&gt;&lt;div&gt;&lt;b&gt;{OS=Android}&lt;/b&gt;&lt;/div&gt;" style="html=1;whiteSpace=wrap;strokeColor=none;" parent="lI-046-nffeyncQyr4Zk-4" vertex="1">
          <mxGeometry x="75" y="14.666666666666666" width="110" height="58.666666666666664" as="geometry" />
        </mxCell>
        <mxCell id="lI-046-nffeyncQyr4Zk-7" value="«application»&lt;br&gt;&lt;b&gt;FaithLink App&lt;/b&gt;" style="html=1;dropTarget=0;whiteSpace=wrap;" parent="lI-046-nffeyncQyr4Zk-4" vertex="1">
          <mxGeometry x="40" y="73.33333333333333" width="180" height="66" as="geometry" />
        </mxCell>
        <mxCell id="lI-046-nffeyncQyr4Zk-9" value="" style="group" parent="1" connectable="0" vertex="1">
          <mxGeometry x="550" y="400" width="260" height="220" as="geometry" />
        </mxCell>
        <mxCell id="lI-046-nffeyncQyr4Zk-10" value="" style="verticalAlign=top;align=left;spacingTop=8;spacingLeft=2;spacingRight=12;shape=cube;size=10;direction=south;fontStyle=4;html=1;rounded=0;shadow=0;comic=0;labelBackgroundColor=none;strokeWidth=1;fontFamily=Verdana;fontSize=12" parent="lI-046-nffeyncQyr4Zk-9" vertex="1">
          <mxGeometry width="260" height="219.99999999999997" as="geometry" />
        </mxCell>
        <mxCell id="lI-046-nffeyncQyr4Zk-11" value="«device»&lt;br&gt;&lt;b&gt;Mobile Phone&lt;/b&gt;&lt;div&gt;&lt;b&gt;{OS=iOS}&lt;/b&gt;&lt;/div&gt;" style="html=1;whiteSpace=wrap;strokeColor=none;" parent="lI-046-nffeyncQyr4Zk-9" vertex="1">
          <mxGeometry x="75" y="14.666666666666666" width="110" height="58.666666666666664" as="geometry" />
        </mxCell>
        <mxCell id="lI-046-nffeyncQyr4Zk-12" value="«application»&lt;br&gt;&lt;b&gt;FaithLink App&lt;/b&gt;" style="html=1;dropTarget=0;whiteSpace=wrap;" parent="lI-046-nffeyncQyr4Zk-9" vertex="1">
          <mxGeometry x="40" y="73.33333333333333" width="180" height="66" as="geometry" />
        </mxCell>
        <mxCell id="zeNZUcg0iBA0-CbNmsgr-1" style="edgeStyle=orthogonalEdgeStyle;rounded=0;orthogonalLoop=1;jettySize=auto;html=1;exitX=0;exitY=0;exitDx=70;exitDy=0;exitPerimeter=0;entryX=0;entryY=0;entryDx=114.99999999999999;entryDy=260;entryPerimeter=0;endArrow=none;endFill=0;" parent="1" source="39150e848f15840c-3" target="lI-046-nffeyncQyr4Zk-5" edge="1">
          <mxGeometry relative="1" as="geometry" />
        </mxCell>
        <mxCell id="zeNZUcg0iBA0-CbNmsgr-2" style="edgeStyle=orthogonalEdgeStyle;rounded=0;orthogonalLoop=1;jettySize=auto;html=1;exitX=0;exitY=0;exitDx=70;exitDy=0;exitPerimeter=0;entryX=0;entryY=0;entryDx=114.99999999999999;entryDy=260;entryPerimeter=0;endArrow=none;endFill=0;" parent="1" source="39150e848f15840c-3" target="lI-046-nffeyncQyr4Zk-10" edge="1">
          <mxGeometry relative="1" as="geometry" />
        </mxCell>
      </root>
    </mxGraphModel>
  </diagram>
  <diagram id="RZ-FWO4TuppkIw3De-2x" name="Activity">
    <mxGraphModel dx="2333" dy="1391" grid="1" gridSize="10" guides="1" tooltips="1" connect="1" arrows="1" fold="1" page="1" pageScale="1" pageWidth="850" pageHeight="1100" math="0" shadow="0">
      <root>
        <mxCell id="0" />
        <mxCell id="1" parent="0" />
        <mxCell id="2EG6RKbsyVWapE8Dmf16-1" value="Create Account" style="ellipse;whiteSpace=wrap;html=1;" vertex="1" parent="1">
          <mxGeometry x="40" y="40" width="140" height="70" as="geometry" />
        </mxCell>
        <mxCell id="2EG6RKbsyVWapE8Dmf16-28" value="" style="group" vertex="1" connectable="0" parent="1">
          <mxGeometry x="268" y="60" width="315" height="720" as="geometry" />
        </mxCell>
        <mxCell id="2EG6RKbsyVWapE8Dmf16-2" value="" style="ellipse;html=1;shape=startState;fillColor=#000000;strokeColor=#ff0000;" vertex="1" parent="2EG6RKbsyVWapE8Dmf16-28">
          <mxGeometry x="45" width="30" height="30" as="geometry" />
        </mxCell>
        <mxCell id="2EG6RKbsyVWapE8Dmf16-3" value="" style="edgeStyle=orthogonalEdgeStyle;html=1;verticalAlign=bottom;endArrow=open;endSize=8;strokeColor=#ff0000;rounded=0;" edge="1" source="2EG6RKbsyVWapE8Dmf16-2" parent="2EG6RKbsyVWapE8Dmf16-28">
          <mxGeometry relative="1" as="geometry">
            <mxPoint x="60" y="90" as="targetPoint" />
          </mxGeometry>
        </mxCell>
        <mxCell id="2EG6RKbsyVWapE8Dmf16-4" value="enter email and password" style="edgeLabel;html=1;align=center;verticalAlign=middle;resizable=0;points=[];" vertex="1" connectable="0" parent="2EG6RKbsyVWapE8Dmf16-3">
          <mxGeometry x="-0.2794" y="1" relative="1" as="geometry">
            <mxPoint as="offset" />
          </mxGeometry>
        </mxCell>
        <mxCell id="2EG6RKbsyVWapE8Dmf16-5" value="Get details" style="rounded=1;whiteSpace=wrap;html=1;arcSize=40;fontColor=#000000;fillColor=#ffffc0;strokeColor=#ff0000;" vertex="1" parent="2EG6RKbsyVWapE8Dmf16-28">
          <mxGeometry y="90" width="120" height="40" as="geometry" />
        </mxCell>
        <mxCell id="2EG6RKbsyVWapE8Dmf16-6" value="" style="edgeStyle=orthogonalEdgeStyle;html=1;verticalAlign=bottom;endArrow=open;endSize=8;strokeColor=#ff0000;rounded=0;" edge="1" source="2EG6RKbsyVWapE8Dmf16-5" parent="2EG6RKbsyVWapE8Dmf16-28">
          <mxGeometry relative="1" as="geometry">
            <mxPoint x="60" y="190" as="targetPoint" />
          </mxGeometry>
        </mxCell>
        <mxCell id="2EG6RKbsyVWapE8Dmf16-7" value="Submit" style="edgeLabel;html=1;align=center;verticalAlign=middle;resizable=0;points=[];" vertex="1" connectable="0" parent="2EG6RKbsyVWapE8Dmf16-6">
          <mxGeometry x="-0.2794" y="-2" relative="1" as="geometry">
            <mxPoint as="offset" />
          </mxGeometry>
        </mxCell>
        <mxCell id="2EG6RKbsyVWapE8Dmf16-8" value="Validate data" style="rounded=1;whiteSpace=wrap;html=1;arcSize=40;fontColor=#000000;fillColor=#ffffc0;strokeColor=#ff0000;" vertex="1" parent="2EG6RKbsyVWapE8Dmf16-28">
          <mxGeometry y="190" width="120" height="40" as="geometry" />
        </mxCell>
        <mxCell id="2EG6RKbsyVWapE8Dmf16-9" value="" style="edgeStyle=orthogonalEdgeStyle;html=1;verticalAlign=bottom;endArrow=open;endSize=8;strokeColor=#ff0000;rounded=0;" edge="1" source="2EG6RKbsyVWapE8Dmf16-8" parent="2EG6RKbsyVWapE8Dmf16-28">
          <mxGeometry relative="1" as="geometry">
            <mxPoint x="60" y="290" as="targetPoint" />
          </mxGeometry>
        </mxCell>
        <mxCell id="2EG6RKbsyVWapE8Dmf16-10" value="Valid?" style="rhombus;whiteSpace=wrap;html=1;fontColor=#000000;fillColor=#ffffc0;strokeColor=#ff0000;" vertex="1" parent="2EG6RKbsyVWapE8Dmf16-28">
          <mxGeometry x="20" y="290" width="80" height="40" as="geometry" />
        </mxCell>
        <mxCell id="2EG6RKbsyVWapE8Dmf16-11" value="no" style="edgeStyle=orthogonalEdgeStyle;html=1;align=left;verticalAlign=bottom;endArrow=open;endSize=8;strokeColor=#ff0000;rounded=0;" edge="1" source="2EG6RKbsyVWapE8Dmf16-10" parent="2EG6RKbsyVWapE8Dmf16-28">
          <mxGeometry x="-1" relative="1" as="geometry">
            <mxPoint x="195" y="310" as="targetPoint" />
          </mxGeometry>
        </mxCell>
        <mxCell id="2EG6RKbsyVWapE8Dmf16-12" value="yes" style="edgeStyle=orthogonalEdgeStyle;html=1;align=left;verticalAlign=top;endArrow=open;endSize=8;strokeColor=#ff0000;rounded=0;" edge="1" source="2EG6RKbsyVWapE8Dmf16-10" parent="2EG6RKbsyVWapE8Dmf16-28">
          <mxGeometry x="-1" relative="1" as="geometry">
            <mxPoint x="60" y="400" as="targetPoint" />
          </mxGeometry>
        </mxCell>
        <mxCell id="2EG6RKbsyVWapE8Dmf16-15" style="edgeStyle=orthogonalEdgeStyle;rounded=0;orthogonalLoop=1;jettySize=auto;html=1;entryX=1;entryY=0.5;entryDx=0;entryDy=0;fillColor=#fad9d5;strokeColor=#ff0000;" edge="1" parent="2EG6RKbsyVWapE8Dmf16-28" source="2EG6RKbsyVWapE8Dmf16-13" target="2EG6RKbsyVWapE8Dmf16-5">
          <mxGeometry relative="1" as="geometry">
            <Array as="points">
              <mxPoint x="255" y="110" />
            </Array>
          </mxGeometry>
        </mxCell>
        <mxCell id="2EG6RKbsyVWapE8Dmf16-13" value="Show error message" style="rounded=1;whiteSpace=wrap;html=1;arcSize=40;fontColor=#000000;fillColor=#ffffc0;strokeColor=#ff0000;" vertex="1" parent="2EG6RKbsyVWapE8Dmf16-28">
          <mxGeometry x="195" y="290" width="120" height="40" as="geometry" />
        </mxCell>
        <mxCell id="2EG6RKbsyVWapE8Dmf16-16" value="addDoc()" style="rounded=1;whiteSpace=wrap;html=1;arcSize=40;fontColor=#000000;fillColor=#ffffc0;strokeColor=#ff0000;" vertex="1" parent="2EG6RKbsyVWapE8Dmf16-28">
          <mxGeometry y="400" width="120" height="40" as="geometry" />
        </mxCell>
        <mxCell id="2EG6RKbsyVWapE8Dmf16-17" value="" style="edgeStyle=orthogonalEdgeStyle;html=1;verticalAlign=bottom;endArrow=open;endSize=8;strokeColor=#ff0000;rounded=0;" edge="1" source="2EG6RKbsyVWapE8Dmf16-16" parent="2EG6RKbsyVWapE8Dmf16-28">
          <mxGeometry relative="1" as="geometry">
            <mxPoint x="60" y="500" as="targetPoint" />
          </mxGeometry>
        </mxCell>
        <mxCell id="2EG6RKbsyVWapE8Dmf16-18" value="Log in" style="rounded=1;whiteSpace=wrap;html=1;arcSize=40;fontColor=#000000;fillColor=#ffffc0;strokeColor=#ff0000;" vertex="1" parent="2EG6RKbsyVWapE8Dmf16-28">
          <mxGeometry y="600" width="120" height="40" as="geometry" />
        </mxCell>
        <mxCell id="2EG6RKbsyVWapE8Dmf16-20" value="Success?" style="rhombus;whiteSpace=wrap;html=1;fontColor=#000000;fillColor=#ffffc0;strokeColor=#ff0000;" vertex="1" parent="2EG6RKbsyVWapE8Dmf16-28">
          <mxGeometry x="20" y="500" width="80" height="40" as="geometry" />
        </mxCell>
        <mxCell id="2EG6RKbsyVWapE8Dmf16-21" value="no" style="edgeStyle=orthogonalEdgeStyle;html=1;align=left;verticalAlign=bottom;endArrow=open;endSize=8;strokeColor=#ff0000;rounded=0;entryX=0.5;entryY=1;entryDx=0;entryDy=0;" edge="1" source="2EG6RKbsyVWapE8Dmf16-20" parent="2EG6RKbsyVWapE8Dmf16-28" target="2EG6RKbsyVWapE8Dmf16-13">
          <mxGeometry x="-1" relative="1" as="geometry">
            <mxPoint x="200" y="520" as="targetPoint" />
          </mxGeometry>
        </mxCell>
        <mxCell id="2EG6RKbsyVWapE8Dmf16-22" value="yes" style="edgeStyle=orthogonalEdgeStyle;html=1;align=left;verticalAlign=top;endArrow=open;endSize=8;strokeColor=#ff0000;rounded=0;entryX=0.499;entryY=0.033;entryDx=0;entryDy=0;entryPerimeter=0;" edge="1" source="2EG6RKbsyVWapE8Dmf16-20" parent="2EG6RKbsyVWapE8Dmf16-28" target="2EG6RKbsyVWapE8Dmf16-18">
          <mxGeometry x="-1" relative="1" as="geometry">
            <mxPoint x="60" y="600" as="targetPoint" />
          </mxGeometry>
        </mxCell>
        <mxCell id="2EG6RKbsyVWapE8Dmf16-26" value="" style="ellipse;html=1;shape=endState;fillColor=#000000;strokeColor=#ff0000;fontFamily=Helvetica;fontSize=11;fontColor=default;labelBackgroundColor=default;" vertex="1" parent="2EG6RKbsyVWapE8Dmf16-28">
          <mxGeometry x="45" y="690" width="30" height="30" as="geometry" />
        </mxCell>
        <mxCell id="2EG6RKbsyVWapE8Dmf16-27" style="edgeStyle=orthogonalEdgeStyle;rounded=0;orthogonalLoop=1;jettySize=auto;html=1;exitX=0.5;exitY=1;exitDx=0;exitDy=0;entryX=0.5;entryY=0;entryDx=0;entryDy=0;strokeColor=#ff0000;align=center;verticalAlign=middle;fontFamily=Helvetica;fontSize=11;fontColor=default;labelBackgroundColor=default;endArrow=classic;fillColor=#fad9d5;" edge="1" parent="2EG6RKbsyVWapE8Dmf16-28" source="2EG6RKbsyVWapE8Dmf16-18" target="2EG6RKbsyVWapE8Dmf16-26">
          <mxGeometry relative="1" as="geometry" />
        </mxCell>
        <mxCell id="2EG6RKbsyVWapE8Dmf16-29" value="Log In" style="ellipse;whiteSpace=wrap;html=1;" vertex="1" parent="1">
          <mxGeometry x="880" y="40" width="140" height="70" as="geometry" />
        </mxCell>
        <mxCell id="2EG6RKbsyVWapE8Dmf16-34" value="" style="ellipse;html=1;shape=startState;fillColor=#000000;strokeColor=#ff0000;" vertex="1" parent="1">
          <mxGeometry x="1163" y="60" width="30" height="30" as="geometry" />
        </mxCell>
        <mxCell id="2EG6RKbsyVWapE8Dmf16-35" value="" style="edgeStyle=orthogonalEdgeStyle;html=1;verticalAlign=bottom;endArrow=open;endSize=8;strokeColor=#ff0000;rounded=0;" edge="1" parent="1" source="2EG6RKbsyVWapE8Dmf16-34">
          <mxGeometry relative="1" as="geometry">
            <mxPoint x="1178" y="150" as="targetPoint" />
          </mxGeometry>
        </mxCell>
        <mxCell id="2EG6RKbsyVWapE8Dmf16-36" value="enter email and password" style="edgeLabel;html=1;align=center;verticalAlign=middle;resizable=0;points=[];" vertex="1" connectable="0" parent="2EG6RKbsyVWapE8Dmf16-35">
          <mxGeometry x="-0.2794" y="1" relative="1" as="geometry">
            <mxPoint as="offset" />
          </mxGeometry>
        </mxCell>
        <mxCell id="2EG6RKbsyVWapE8Dmf16-37" value="Get details" style="rounded=1;whiteSpace=wrap;html=1;arcSize=40;fontColor=#000000;fillColor=#ffffc0;strokeColor=#ff0000;" vertex="1" parent="1">
          <mxGeometry x="1118" y="150" width="120" height="40" as="geometry" />
        </mxCell>
        <mxCell id="2EG6RKbsyVWapE8Dmf16-38" value="" style="edgeStyle=orthogonalEdgeStyle;html=1;verticalAlign=bottom;endArrow=open;endSize=8;strokeColor=#ff0000;rounded=0;" edge="1" parent="1" source="2EG6RKbsyVWapE8Dmf16-37">
          <mxGeometry relative="1" as="geometry">
            <mxPoint x="1178" y="250" as="targetPoint" />
          </mxGeometry>
        </mxCell>
        <mxCell id="2EG6RKbsyVWapE8Dmf16-39" value="Submit" style="edgeLabel;html=1;align=center;verticalAlign=middle;resizable=0;points=[];" vertex="1" connectable="0" parent="2EG6RKbsyVWapE8Dmf16-38">
          <mxGeometry x="-0.2794" y="-2" relative="1" as="geometry">
            <mxPoint as="offset" />
          </mxGeometry>
        </mxCell>
        <mxCell id="2EG6RKbsyVWapE8Dmf16-40" value="Validate data" style="rounded=1;whiteSpace=wrap;html=1;arcSize=40;fontColor=#000000;fillColor=#ffffc0;strokeColor=#ff0000;" vertex="1" parent="1">
          <mxGeometry x="1118" y="250" width="120" height="40" as="geometry" />
        </mxCell>
        <mxCell id="2EG6RKbsyVWapE8Dmf16-41" value="" style="edgeStyle=orthogonalEdgeStyle;html=1;verticalAlign=bottom;endArrow=open;endSize=8;strokeColor=#ff0000;rounded=0;" edge="1" parent="1" source="2EG6RKbsyVWapE8Dmf16-40">
          <mxGeometry relative="1" as="geometry">
            <mxPoint x="1178" y="350" as="targetPoint" />
          </mxGeometry>
        </mxCell>
        <mxCell id="2EG6RKbsyVWapE8Dmf16-42" value="Valid?" style="rhombus;whiteSpace=wrap;html=1;fontColor=#000000;fillColor=#ffffc0;strokeColor=#ff0000;" vertex="1" parent="1">
          <mxGeometry x="1138" y="350" width="80" height="40" as="geometry" />
        </mxCell>
        <mxCell id="2EG6RKbsyVWapE8Dmf16-43" value="no" style="edgeStyle=orthogonalEdgeStyle;html=1;align=left;verticalAlign=bottom;endArrow=open;endSize=8;strokeColor=#ff0000;rounded=0;" edge="1" parent="1" source="2EG6RKbsyVWapE8Dmf16-42">
          <mxGeometry x="-1" relative="1" as="geometry">
            <mxPoint x="1313" y="370" as="targetPoint" />
          </mxGeometry>
        </mxCell>
        <mxCell id="2EG6RKbsyVWapE8Dmf16-44" value="yes" style="edgeStyle=orthogonalEdgeStyle;html=1;align=left;verticalAlign=top;endArrow=open;endSize=8;strokeColor=#ff0000;rounded=0;entryX=0.496;entryY=0.239;entryDx=0;entryDy=0;entryPerimeter=0;" edge="1" parent="1" source="2EG6RKbsyVWapE8Dmf16-42" target="2EG6RKbsyVWapE8Dmf16-59">
          <mxGeometry x="-1" relative="1" as="geometry">
            <mxPoint x="1178" y="460" as="targetPoint" />
          </mxGeometry>
        </mxCell>
        <mxCell id="2EG6RKbsyVWapE8Dmf16-45" style="edgeStyle=orthogonalEdgeStyle;rounded=0;orthogonalLoop=1;jettySize=auto;html=1;entryX=1;entryY=0.5;entryDx=0;entryDy=0;fillColor=#fad9d5;strokeColor=#ff0000;" edge="1" parent="1" source="2EG6RKbsyVWapE8Dmf16-46" target="2EG6RKbsyVWapE8Dmf16-37">
          <mxGeometry relative="1" as="geometry">
            <Array as="points">
              <mxPoint x="1373" y="170" />
            </Array>
          </mxGeometry>
        </mxCell>
        <mxCell id="2EG6RKbsyVWapE8Dmf16-46" value="Show error message" style="rounded=1;whiteSpace=wrap;html=1;arcSize=40;fontColor=#000000;fillColor=#ffffc0;strokeColor=#ff0000;" vertex="1" parent="1">
          <mxGeometry x="1313" y="350" width="120" height="40" as="geometry" />
        </mxCell>
        <mxCell id="2EG6RKbsyVWapE8Dmf16-58" style="edgeStyle=orthogonalEdgeStyle;rounded=0;orthogonalLoop=1;jettySize=auto;html=1;exitX=0.5;exitY=1;exitDx=0;exitDy=0;entryX=0.5;entryY=0;entryDx=0;entryDy=0;strokeColor=#ff0000;align=center;verticalAlign=middle;fontFamily=Helvetica;fontSize=11;fontColor=default;labelBackgroundColor=default;endArrow=classic;fillColor=#fad9d5;" edge="1" parent="1" source="2EG6RKbsyVWapE8Dmf16-47" target="2EG6RKbsyVWapE8Dmf16-50">
          <mxGeometry relative="1" as="geometry" />
        </mxCell>
        <mxCell id="2EG6RKbsyVWapE8Dmf16-47" value="Fetch user data" style="rounded=1;whiteSpace=wrap;html=1;arcSize=40;fontColor=#000000;fillColor=#ffffc0;strokeColor=#ff0000;" vertex="1" parent="1">
          <mxGeometry x="1210" y="460" width="120" height="40" as="geometry" />
        </mxCell>
        <mxCell id="2EG6RKbsyVWapE8Dmf16-70" style="edgeStyle=orthogonalEdgeStyle;rounded=0;orthogonalLoop=1;jettySize=auto;html=1;exitX=0.5;exitY=1;exitDx=0;exitDy=0;entryX=0;entryY=0.5;entryDx=0;entryDy=0;strokeColor=#ff0000;align=center;verticalAlign=middle;fontFamily=Helvetica;fontSize=12;fontColor=#000000;labelBackgroundColor=default;endArrow=classic;fillColor=#fad9d5;" edge="1" parent="1" source="2EG6RKbsyVWapE8Dmf16-49" target="2EG6RKbsyVWapE8Dmf16-50">
          <mxGeometry relative="1" as="geometry" />
        </mxCell>
        <mxCell id="2EG6RKbsyVWapE8Dmf16-49" value="Log in" style="rounded=1;whiteSpace=wrap;html=1;arcSize=40;fontColor=#000000;fillColor=#ffffc0;strokeColor=#ff0000;" vertex="1" parent="1">
          <mxGeometry x="1020" y="460" width="120" height="40" as="geometry" />
        </mxCell>
        <mxCell id="2EG6RKbsyVWapE8Dmf16-56" style="edgeStyle=orthogonalEdgeStyle;rounded=0;orthogonalLoop=1;jettySize=auto;html=1;exitX=1;exitY=0.5;exitDx=0;exitDy=0;entryX=0.5;entryY=1;entryDx=0;entryDy=0;strokeColor=#ff0000;align=center;verticalAlign=middle;fontFamily=Helvetica;fontSize=11;fontColor=default;labelBackgroundColor=default;endArrow=classic;fillColor=#fad9d5;" edge="1" parent="1" source="2EG6RKbsyVWapE8Dmf16-50" target="2EG6RKbsyVWapE8Dmf16-46">
          <mxGeometry relative="1" as="geometry" />
        </mxCell>
        <mxCell id="2EG6RKbsyVWapE8Dmf16-57" value="no" style="edgeLabel;html=1;align=center;verticalAlign=middle;resizable=0;points=[];fontFamily=Helvetica;fontSize=11;fontColor=default;labelBackgroundColor=default;" vertex="1" connectable="0" parent="2EG6RKbsyVWapE8Dmf16-56">
          <mxGeometry x="-0.149" y="-3" relative="1" as="geometry">
            <mxPoint x="7" y="-103" as="offset" />
          </mxGeometry>
        </mxCell>
        <mxCell id="2EG6RKbsyVWapE8Dmf16-68" style="edgeStyle=orthogonalEdgeStyle;rounded=0;orthogonalLoop=1;jettySize=auto;html=1;exitX=0.5;exitY=1;exitDx=0;exitDy=0;entryX=0.5;entryY=0;entryDx=0;entryDy=0;strokeColor=#ff0000;align=center;verticalAlign=middle;fontFamily=Helvetica;fontSize=12;fontColor=#000000;labelBackgroundColor=default;endArrow=classic;fillColor=#fad9d5;" edge="1" parent="1" source="2EG6RKbsyVWapE8Dmf16-50" target="2EG6RKbsyVWapE8Dmf16-66">
          <mxGeometry relative="1" as="geometry" />
        </mxCell>
        <mxCell id="2EG6RKbsyVWapE8Dmf16-69" value="yes" style="edgeLabel;html=1;align=center;verticalAlign=middle;resizable=0;points=[];rounded=1;strokeColor=#ff0000;arcSize=40;fontFamily=Helvetica;fontSize=12;fontColor=#000000;fillColor=#ffffc0;" vertex="1" connectable="0" parent="2EG6RKbsyVWapE8Dmf16-68">
          <mxGeometry x="-0.2762" y="-1" relative="1" as="geometry">
            <mxPoint as="offset" />
          </mxGeometry>
        </mxCell>
        <mxCell id="2EG6RKbsyVWapE8Dmf16-50" value="Success?" style="rhombus;whiteSpace=wrap;html=1;fontColor=#000000;fillColor=#ffffc0;strokeColor=#ff0000;" vertex="1" parent="1">
          <mxGeometry x="1140" y="560" width="80" height="40" as="geometry" />
        </mxCell>
        <mxCell id="2EG6RKbsyVWapE8Dmf16-53" value="" style="ellipse;html=1;shape=endState;fillColor=#000000;strokeColor=#ff0000;fontFamily=Helvetica;fontSize=11;fontColor=default;labelBackgroundColor=default;" vertex="1" parent="1">
          <mxGeometry x="1165" y="750" width="30" height="30" as="geometry" />
        </mxCell>
        <mxCell id="2EG6RKbsyVWapE8Dmf16-61" style="edgeStyle=orthogonalEdgeStyle;rounded=0;orthogonalLoop=1;jettySize=auto;html=1;exitX=0.75;exitY=0.5;exitDx=0;exitDy=0;exitPerimeter=0;entryX=0.5;entryY=0;entryDx=0;entryDy=0;strokeColor=#ff0000;align=center;verticalAlign=middle;fontFamily=Helvetica;fontSize=11;fontColor=default;labelBackgroundColor=default;endArrow=classic;fillColor=#fad9d5;" edge="1" parent="1" source="2EG6RKbsyVWapE8Dmf16-59" target="2EG6RKbsyVWapE8Dmf16-47">
          <mxGeometry relative="1" as="geometry" />
        </mxCell>
        <mxCell id="2EG6RKbsyVWapE8Dmf16-62" style="edgeStyle=orthogonalEdgeStyle;rounded=0;orthogonalLoop=1;jettySize=auto;html=1;exitX=0.25;exitY=0.5;exitDx=0;exitDy=0;exitPerimeter=0;entryX=0.5;entryY=0;entryDx=0;entryDy=0;strokeColor=#ff0000;align=center;verticalAlign=middle;fontFamily=Helvetica;fontSize=11;fontColor=default;labelBackgroundColor=default;endArrow=classic;fillColor=#fad9d5;" edge="1" parent="1" source="2EG6RKbsyVWapE8Dmf16-59" target="2EG6RKbsyVWapE8Dmf16-49">
          <mxGeometry relative="1" as="geometry" />
        </mxCell>
        <mxCell id="2EG6RKbsyVWapE8Dmf16-59" value="" style="shape=line;html=1;strokeWidth=6;strokeColor=#ff0000;fontFamily=Helvetica;fontSize=11;fontColor=default;labelBackgroundColor=default;" vertex="1" parent="1">
          <mxGeometry x="1078" y="420" width="200" height="10" as="geometry" />
        </mxCell>
        <mxCell id="2EG6RKbsyVWapE8Dmf16-71" style="edgeStyle=orthogonalEdgeStyle;rounded=0;orthogonalLoop=1;jettySize=auto;html=1;entryX=0.5;entryY=0;entryDx=0;entryDy=0;strokeColor=#ff0000;align=center;verticalAlign=middle;fontFamily=Helvetica;fontSize=12;fontColor=#000000;labelBackgroundColor=default;endArrow=classic;fillColor=#fad9d5;" edge="1" parent="1" source="2EG6RKbsyVWapE8Dmf16-66" target="2EG6RKbsyVWapE8Dmf16-53">
          <mxGeometry relative="1" as="geometry" />
        </mxCell>
        <mxCell id="2EG6RKbsyVWapE8Dmf16-66" value="Display user data" style="rounded=1;whiteSpace=wrap;html=1;arcSize=40;fontColor=#000000;fillColor=#ffffc0;strokeColor=#ff0000;align=center;verticalAlign=middle;fontFamily=Helvetica;fontSize=12;" vertex="1" parent="1">
          <mxGeometry x="1120" y="640" width="120" height="40" as="geometry" />
        </mxCell>
        <mxCell id="Za5Q8bb8UPaSNorX65a6-1" value="View Group Page" style="ellipse;whiteSpace=wrap;html=1;" vertex="1" parent="1">
          <mxGeometry x="1700" y="40" width="140" height="70" as="geometry" />
        </mxCell>
        <mxCell id="Za5Q8bb8UPaSNorX65a6-2" value="" style="ellipse;html=1;shape=startState;fillColor=#000000;strokeColor=#ff0000;" vertex="1" parent="1">
          <mxGeometry x="1983" y="60" width="30" height="30" as="geometry" />
        </mxCell>
        <mxCell id="Za5Q8bb8UPaSNorX65a6-3" value="" style="edgeStyle=orthogonalEdgeStyle;html=1;verticalAlign=bottom;endArrow=open;endSize=8;strokeColor=#ff0000;rounded=0;" edge="1" source="Za5Q8bb8UPaSNorX65a6-2" parent="1">
          <mxGeometry relative="1" as="geometry">
            <mxPoint x="1998" y="150" as="targetPoint" />
          </mxGeometry>
        </mxCell>
        <mxCell id="Za5Q8bb8UPaSNorX65a6-5" value="Get user info" style="rounded=1;whiteSpace=wrap;html=1;arcSize=40;fontColor=#000000;fillColor=#ffffc0;strokeColor=#ff0000;" vertex="1" parent="1">
          <mxGeometry x="1938" y="150" width="120" height="40" as="geometry" />
        </mxCell>
        <mxCell id="Za5Q8bb8UPaSNorX65a6-6" value="" style="edgeStyle=orthogonalEdgeStyle;html=1;verticalAlign=bottom;endArrow=open;endSize=8;strokeColor=#ff0000;rounded=0;entryX=0.5;entryY=0;entryDx=0;entryDy=0;" edge="1" source="Za5Q8bb8UPaSNorX65a6-5" parent="1" target="Za5Q8bb8UPaSNorX65a6-10">
          <mxGeometry relative="1" as="geometry">
            <mxPoint x="1998" y="250" as="targetPoint" />
          </mxGeometry>
        </mxCell>
        <mxCell id="Za5Q8bb8UPaSNorX65a6-32" style="edgeStyle=orthogonalEdgeStyle;rounded=0;orthogonalLoop=1;jettySize=auto;html=1;exitX=0;exitY=0.5;exitDx=0;exitDy=0;entryX=1;entryY=0.5;entryDx=0;entryDy=0;strokeColor=#ff0000;align=center;verticalAlign=middle;fontFamily=Helvetica;fontSize=12;fontColor=#000000;labelBackgroundColor=default;endArrow=classic;fillColor=#fad9d5;" edge="1" parent="1" source="Za5Q8bb8UPaSNorX65a6-10" target="Za5Q8bb8UPaSNorX65a6-31">
          <mxGeometry relative="1" as="geometry" />
        </mxCell>
        <mxCell id="Za5Q8bb8UPaSNorX65a6-33" value="yes" style="edgeLabel;html=1;align=center;verticalAlign=middle;resizable=0;points=[];rounded=1;strokeColor=#ff0000;arcSize=40;fontFamily=Helvetica;fontSize=12;fontColor=#000000;fillColor=#ffffc0;" vertex="1" connectable="0" parent="Za5Q8bb8UPaSNorX65a6-32">
          <mxGeometry x="-0.1377" y="-3" relative="1" as="geometry">
            <mxPoint as="offset" />
          </mxGeometry>
        </mxCell>
        <mxCell id="Za5Q8bb8UPaSNorX65a6-35" style="edgeStyle=orthogonalEdgeStyle;rounded=0;orthogonalLoop=1;jettySize=auto;html=1;exitX=1;exitY=0.5;exitDx=0;exitDy=0;entryX=0;entryY=0.5;entryDx=0;entryDy=0;strokeColor=#ff0000;align=center;verticalAlign=middle;fontFamily=Helvetica;fontSize=12;fontColor=#000000;labelBackgroundColor=default;endArrow=classic;fillColor=#fad9d5;" edge="1" parent="1" source="Za5Q8bb8UPaSNorX65a6-10" target="Za5Q8bb8UPaSNorX65a6-34">
          <mxGeometry relative="1" as="geometry" />
        </mxCell>
        <mxCell id="Za5Q8bb8UPaSNorX65a6-36" value="no" style="edgeLabel;html=1;align=center;verticalAlign=middle;resizable=0;points=[];rounded=1;strokeColor=#ff0000;arcSize=40;fontFamily=Helvetica;fontSize=12;fontColor=#000000;fillColor=#ffffc0;" vertex="1" connectable="0" parent="Za5Q8bb8UPaSNorX65a6-35">
          <mxGeometry x="-0.0702" y="3" relative="1" as="geometry">
            <mxPoint as="offset" />
          </mxGeometry>
        </mxCell>
        <mxCell id="Za5Q8bb8UPaSNorX65a6-10" value="In a group?" style="rhombus;whiteSpace=wrap;html=1;fontColor=#000000;fillColor=#ffffc0;strokeColor=#ff0000;" vertex="1" parent="1">
          <mxGeometry x="1958" y="260" width="80" height="40" as="geometry" />
        </mxCell>
        <mxCell id="Za5Q8bb8UPaSNorX65a6-39" style="edgeStyle=orthogonalEdgeStyle;rounded=0;orthogonalLoop=1;jettySize=auto;html=1;entryX=0.5;entryY=0;entryDx=0;entryDy=0;strokeColor=#ff0000;align=center;verticalAlign=middle;fontFamily=Helvetica;fontSize=12;fontColor=#000000;labelBackgroundColor=default;endArrow=classic;fillColor=#fad9d5;" edge="1" parent="1" source="Za5Q8bb8UPaSNorX65a6-31" target="Za5Q8bb8UPaSNorX65a6-38">
          <mxGeometry relative="1" as="geometry" />
        </mxCell>
        <mxCell id="Za5Q8bb8UPaSNorX65a6-40" value="getDoc(&#39;groups/[groupID]&#39;)" style="edgeLabel;html=1;align=center;verticalAlign=middle;resizable=0;points=[];rounded=1;strokeColor=#ff0000;arcSize=40;fontFamily=Helvetica;fontSize=12;fontColor=#000000;fillColor=#ffffc0;" vertex="1" connectable="0" parent="Za5Q8bb8UPaSNorX65a6-39">
          <mxGeometry x="0.0377" relative="1" as="geometry">
            <mxPoint as="offset" />
          </mxGeometry>
        </mxCell>
        <mxCell id="Za5Q8bb8UPaSNorX65a6-31" value="Get group info" style="rounded=1;whiteSpace=wrap;html=1;arcSize=40;fontColor=#000000;fillColor=#ffffc0;strokeColor=#ff0000;" vertex="1" parent="1">
          <mxGeometry x="1760" y="260" width="120" height="40" as="geometry" />
        </mxCell>
        <mxCell id="Za5Q8bb8UPaSNorX65a6-48" style="edgeStyle=orthogonalEdgeStyle;rounded=0;orthogonalLoop=1;jettySize=auto;html=1;entryX=0.5;entryY=0;entryDx=0;entryDy=0;strokeColor=#ff0000;align=center;verticalAlign=middle;fontFamily=Helvetica;fontSize=12;fontColor=#000000;labelBackgroundColor=default;endArrow=classic;fillColor=#fad9d5;" edge="1" parent="1" source="Za5Q8bb8UPaSNorX65a6-34" target="Za5Q8bb8UPaSNorX65a6-46">
          <mxGeometry relative="1" as="geometry" />
        </mxCell>
        <mxCell id="Za5Q8bb8UPaSNorX65a6-49" value="enter group ID" style="edgeLabel;html=1;align=center;verticalAlign=middle;resizable=0;points=[];rounded=1;strokeColor=#ff0000;arcSize=40;fontFamily=Helvetica;fontSize=12;fontColor=#000000;fillColor=#ffffc0;" vertex="1" connectable="0" parent="Za5Q8bb8UPaSNorX65a6-48">
          <mxGeometry x="-0.0905" y="2" relative="1" as="geometry">
            <mxPoint as="offset" />
          </mxGeometry>
        </mxCell>
        <mxCell id="Za5Q8bb8UPaSNorX65a6-34" value="Prompt to join group" style="rounded=1;whiteSpace=wrap;html=1;arcSize=40;fontColor=#000000;fillColor=#ffffc0;strokeColor=#ff0000;" vertex="1" parent="1">
          <mxGeometry x="2125" y="260" width="120" height="40" as="geometry" />
        </mxCell>
        <mxCell id="Za5Q8bb8UPaSNorX65a6-41" style="edgeStyle=orthogonalEdgeStyle;rounded=0;orthogonalLoop=1;jettySize=auto;html=1;exitX=1;exitY=0.5;exitDx=0;exitDy=0;strokeColor=#ff0000;align=center;verticalAlign=middle;fontFamily=Helvetica;fontSize=12;fontColor=#000000;labelBackgroundColor=default;endArrow=classic;fillColor=#fad9d5;entryX=0;entryY=0.5;entryDx=0;entryDy=0;" edge="1" parent="1" source="Za5Q8bb8UPaSNorX65a6-38" target="Za5Q8bb8UPaSNorX65a6-42">
          <mxGeometry relative="1" as="geometry">
            <mxPoint x="1960" y="380.25" as="targetPoint" />
          </mxGeometry>
        </mxCell>
        <mxCell id="Za5Q8bb8UPaSNorX65a6-45" value="no" style="edgeLabel;html=1;align=center;verticalAlign=middle;resizable=0;points=[];rounded=1;strokeColor=#ff0000;arcSize=40;fontFamily=Helvetica;fontSize=12;fontColor=#000000;fillColor=#ffffc0;" vertex="1" connectable="0" parent="Za5Q8bb8UPaSNorX65a6-41">
          <mxGeometry x="-0.0109" relative="1" as="geometry">
            <mxPoint as="offset" />
          </mxGeometry>
        </mxCell>
        <mxCell id="Za5Q8bb8UPaSNorX65a6-55" style="edgeStyle=orthogonalEdgeStyle;rounded=0;orthogonalLoop=1;jettySize=auto;html=1;exitX=0.5;exitY=1;exitDx=0;exitDy=0;entryX=0.5;entryY=0;entryDx=0;entryDy=0;strokeColor=#ff0000;align=center;verticalAlign=middle;fontFamily=Helvetica;fontSize=12;fontColor=#000000;labelBackgroundColor=default;endArrow=classic;fillColor=#fad9d5;" edge="1" parent="1" source="Za5Q8bb8UPaSNorX65a6-38" target="Za5Q8bb8UPaSNorX65a6-54">
          <mxGeometry relative="1" as="geometry" />
        </mxCell>
        <mxCell id="Za5Q8bb8UPaSNorX65a6-56" value="yes" style="edgeLabel;html=1;align=center;verticalAlign=middle;resizable=0;points=[];rounded=1;strokeColor=#ff0000;arcSize=40;fontFamily=Helvetica;fontSize=12;fontColor=#000000;fillColor=#ffffc0;" vertex="1" connectable="0" parent="Za5Q8bb8UPaSNorX65a6-55">
          <mxGeometry x="-0.0643" relative="1" as="geometry">
            <mxPoint as="offset" />
          </mxGeometry>
        </mxCell>
        <mxCell id="Za5Q8bb8UPaSNorX65a6-38" value="Success?" style="rhombus;whiteSpace=wrap;html=1;fontColor=#000000;fillColor=#ffffc0;strokeColor=#ff0000;" vertex="1" parent="1">
          <mxGeometry x="1780" y="360" width="80" height="40" as="geometry" />
        </mxCell>
        <mxCell id="Za5Q8bb8UPaSNorX65a6-58" style="edgeStyle=orthogonalEdgeStyle;rounded=0;orthogonalLoop=1;jettySize=auto;html=1;exitX=0.25;exitY=1;exitDx=0;exitDy=0;entryX=0.5;entryY=0;entryDx=0;entryDy=0;strokeColor=#ff0000;align=center;verticalAlign=middle;fontFamily=Helvetica;fontSize=12;fontColor=#000000;labelBackgroundColor=default;endArrow=classic;fillColor=#fad9d5;" edge="1" parent="1" source="Za5Q8bb8UPaSNorX65a6-42" target="Za5Q8bb8UPaSNorX65a6-57">
          <mxGeometry relative="1" as="geometry" />
        </mxCell>
        <mxCell id="Za5Q8bb8UPaSNorX65a6-42" value="Display error message" style="rounded=1;whiteSpace=wrap;html=1;arcSize=40;fontColor=#000000;fillColor=#ffffc0;strokeColor=#ff0000;" vertex="1" parent="1">
          <mxGeometry x="1952" y="360" width="92" height="40" as="geometry" />
        </mxCell>
        <mxCell id="Za5Q8bb8UPaSNorX65a6-46" value="Join group" style="rounded=1;whiteSpace=wrap;html=1;arcSize=40;fontColor=#000000;fillColor=#ffffc0;strokeColor=#ff0000;align=center;verticalAlign=middle;fontFamily=Helvetica;fontSize=12;" vertex="1" parent="1">
          <mxGeometry x="2125" y="360" width="120" height="40" as="geometry" />
        </mxCell>
        <mxCell id="Za5Q8bb8UPaSNorX65a6-47" value="" style="edgeStyle=orthogonalEdgeStyle;html=1;verticalAlign=bottom;endArrow=open;endSize=8;strokeColor=#ff0000;rounded=0;align=center;fontFamily=Helvetica;fontSize=12;fontColor=#000000;labelBackgroundColor=default;fillColor=#fad9d5;entryX=0.5;entryY=0;entryDx=0;entryDy=0;" edge="1" source="Za5Q8bb8UPaSNorX65a6-46" parent="1" target="Za5Q8bb8UPaSNorX65a6-50">
          <mxGeometry relative="1" as="geometry">
            <mxPoint x="2185" y="440" as="targetPoint" />
          </mxGeometry>
        </mxCell>
        <mxCell id="Za5Q8bb8UPaSNorX65a6-51" value="submit" style="edgeLabel;html=1;align=center;verticalAlign=middle;resizable=0;points=[];rounded=1;strokeColor=#ff0000;arcSize=40;fontFamily=Helvetica;fontSize=12;fontColor=#000000;fillColor=#ffffc0;" vertex="1" connectable="0" parent="Za5Q8bb8UPaSNorX65a6-47">
          <mxGeometry x="-0.0286" y="3" relative="1" as="geometry">
            <mxPoint as="offset" />
          </mxGeometry>
        </mxCell>
        <mxCell id="Za5Q8bb8UPaSNorX65a6-52" style="edgeStyle=orthogonalEdgeStyle;rounded=0;orthogonalLoop=1;jettySize=auto;html=1;exitX=0;exitY=0.5;exitDx=0;exitDy=0;entryX=1;entryY=0.5;entryDx=0;entryDy=0;strokeColor=#ff0000;align=center;verticalAlign=middle;fontFamily=Helvetica;fontSize=12;fontColor=#000000;labelBackgroundColor=default;endArrow=classic;fillColor=#fad9d5;" edge="1" parent="1" source="Za5Q8bb8UPaSNorX65a6-50" target="Za5Q8bb8UPaSNorX65a6-42">
          <mxGeometry relative="1" as="geometry" />
        </mxCell>
        <mxCell id="Za5Q8bb8UPaSNorX65a6-53" value="no" style="edgeLabel;html=1;align=center;verticalAlign=middle;resizable=0;points=[];rounded=1;strokeColor=#ff0000;arcSize=40;fontFamily=Helvetica;fontSize=12;fontColor=#000000;fillColor=#ffffc0;" vertex="1" connectable="0" parent="Za5Q8bb8UPaSNorX65a6-52">
          <mxGeometry x="-0.4175" y="-1" relative="1" as="geometry">
            <mxPoint y="-38" as="offset" />
          </mxGeometry>
        </mxCell>
        <mxCell id="Za5Q8bb8UPaSNorX65a6-61" style="edgeStyle=orthogonalEdgeStyle;rounded=0;orthogonalLoop=1;jettySize=auto;html=1;exitX=0.5;exitY=1;exitDx=0;exitDy=0;entryX=0.5;entryY=0;entryDx=0;entryDy=0;strokeColor=#ff0000;align=center;verticalAlign=middle;fontFamily=Helvetica;fontSize=12;fontColor=#000000;labelBackgroundColor=default;endArrow=classic;fillColor=#fad9d5;" edge="1" parent="1" source="Za5Q8bb8UPaSNorX65a6-50" target="Za5Q8bb8UPaSNorX65a6-60">
          <mxGeometry relative="1" as="geometry" />
        </mxCell>
        <mxCell id="Za5Q8bb8UPaSNorX65a6-62" value="yes" style="edgeLabel;html=1;align=center;verticalAlign=middle;resizable=0;points=[];rounded=1;strokeColor=#ff0000;arcSize=40;fontFamily=Helvetica;fontSize=12;fontColor=#000000;fillColor=#ffffc0;" vertex="1" connectable="0" parent="Za5Q8bb8UPaSNorX65a6-61">
          <mxGeometry x="-0.2784" y="1" relative="1" as="geometry">
            <mxPoint as="offset" />
          </mxGeometry>
        </mxCell>
        <mxCell id="Za5Q8bb8UPaSNorX65a6-50" value="Success?" style="rhombus;whiteSpace=wrap;html=1;fontColor=#000000;fillColor=#ffffc0;strokeColor=#ff0000;" vertex="1" parent="1">
          <mxGeometry x="2145" y="440" width="80" height="40" as="geometry" />
        </mxCell>
        <mxCell id="Za5Q8bb8UPaSNorX65a6-59" style="edgeStyle=orthogonalEdgeStyle;rounded=0;orthogonalLoop=1;jettySize=auto;html=1;exitX=0.5;exitY=1;exitDx=0;exitDy=0;entryX=0;entryY=0.5;entryDx=0;entryDy=0;strokeColor=#ff0000;align=center;verticalAlign=middle;fontFamily=Helvetica;fontSize=12;fontColor=#000000;labelBackgroundColor=default;endArrow=classic;fillColor=#fad9d5;" edge="1" parent="1" source="Za5Q8bb8UPaSNorX65a6-54" target="Za5Q8bb8UPaSNorX65a6-57">
          <mxGeometry relative="1" as="geometry" />
        </mxCell>
        <mxCell id="Za5Q8bb8UPaSNorX65a6-54" value="Display group info" style="rounded=1;whiteSpace=wrap;html=1;arcSize=40;fontColor=#000000;fillColor=#ffffc0;strokeColor=#ff0000;" vertex="1" parent="1">
          <mxGeometry x="1760" y="440" width="120" height="40" as="geometry" />
        </mxCell>
        <mxCell id="Za5Q8bb8UPaSNorX65a6-57" value="" style="ellipse;html=1;shape=endState;fillColor=#000000;strokeColor=#ff0000;rounded=1;align=center;verticalAlign=middle;arcSize=40;fontFamily=Helvetica;fontSize=12;fontColor=#000000;" vertex="1" parent="1">
          <mxGeometry x="1960" y="535" width="30" height="30" as="geometry" />
        </mxCell>
        <mxCell id="Za5Q8bb8UPaSNorX65a6-64" style="edgeStyle=orthogonalEdgeStyle;rounded=0;orthogonalLoop=1;jettySize=auto;html=1;exitX=0.5;exitY=1;exitDx=0;exitDy=0;entryX=0.5;entryY=0;entryDx=0;entryDy=0;strokeColor=#ff0000;align=center;verticalAlign=middle;fontFamily=Helvetica;fontSize=12;fontColor=#000000;labelBackgroundColor=default;endArrow=classic;fillColor=#fad9d5;" edge="1" parent="1" source="Za5Q8bb8UPaSNorX65a6-60" target="Za5Q8bb8UPaSNorX65a6-63">
          <mxGeometry relative="1" as="geometry" />
        </mxCell>
        <mxCell id="Za5Q8bb8UPaSNorX65a6-60" value="Update group info" style="rounded=1;whiteSpace=wrap;html=1;arcSize=40;fontColor=#000000;fillColor=#ffffc0;strokeColor=#ff0000;" vertex="1" parent="1">
          <mxGeometry x="2125" y="530" width="120" height="40" as="geometry" />
        </mxCell>
        <mxCell id="Za5Q8bb8UPaSNorX65a6-65" style="edgeStyle=orthogonalEdgeStyle;rounded=0;orthogonalLoop=1;jettySize=auto;html=1;exitX=0.5;exitY=1;exitDx=0;exitDy=0;strokeColor=#ff0000;align=center;verticalAlign=middle;fontFamily=Helvetica;fontSize=12;fontColor=#000000;labelBackgroundColor=default;endArrow=classic;fillColor=#fad9d5;entryX=0;entryY=0.5;entryDx=0;entryDy=0;" edge="1" parent="1" source="Za5Q8bb8UPaSNorX65a6-63" target="Za5Q8bb8UPaSNorX65a6-54">
          <mxGeometry relative="1" as="geometry">
            <mxPoint x="1720" y="450" as="targetPoint" />
            <Array as="points">
              <mxPoint x="2185" y="680" />
              <mxPoint x="1720" y="680" />
              <mxPoint x="1720" y="460" />
            </Array>
          </mxGeometry>
        </mxCell>
        <mxCell id="Za5Q8bb8UPaSNorX65a6-66" value="yes" style="edgeLabel;html=1;align=center;verticalAlign=middle;resizable=0;points=[];rounded=1;strokeColor=#ff0000;arcSize=40;fontFamily=Helvetica;fontSize=12;fontColor=#000000;fillColor=#ffffc0;" vertex="1" connectable="0" parent="Za5Q8bb8UPaSNorX65a6-65">
          <mxGeometry x="-0.5242" y="-1" relative="1" as="geometry">
            <mxPoint x="45" y="1" as="offset" />
          </mxGeometry>
        </mxCell>
        <mxCell id="Za5Q8bb8UPaSNorX65a6-67" style="edgeStyle=orthogonalEdgeStyle;rounded=0;orthogonalLoop=1;jettySize=auto;html=1;exitX=0;exitY=0.5;exitDx=0;exitDy=0;entryX=0.75;entryY=1;entryDx=0;entryDy=0;strokeColor=#ff0000;align=center;verticalAlign=middle;fontFamily=Helvetica;fontSize=12;fontColor=#000000;labelBackgroundColor=default;endArrow=classic;fillColor=#fad9d5;" edge="1" parent="1" source="Za5Q8bb8UPaSNorX65a6-63" target="Za5Q8bb8UPaSNorX65a6-42">
          <mxGeometry relative="1" as="geometry" />
        </mxCell>
        <mxCell id="Za5Q8bb8UPaSNorX65a6-68" value="no" style="edgeLabel;html=1;align=center;verticalAlign=middle;resizable=0;points=[];rounded=1;strokeColor=#ff0000;arcSize=40;fontFamily=Helvetica;fontSize=12;fontColor=#000000;fillColor=#ffffc0;" vertex="1" connectable="0" parent="Za5Q8bb8UPaSNorX65a6-67">
          <mxGeometry x="-0.6481" y="-2" relative="1" as="geometry">
            <mxPoint as="offset" />
          </mxGeometry>
        </mxCell>
        <mxCell id="Za5Q8bb8UPaSNorX65a6-63" value="Success?" style="rhombus;whiteSpace=wrap;html=1;fontColor=#000000;fillColor=#ffffc0;strokeColor=#ff0000;" vertex="1" parent="1">
          <mxGeometry x="2145" y="610" width="80" height="40" as="geometry" />
        </mxCell>
      </root>
    </mxGraphModel>
  </diagram>
</mxfile>
